<?xml version="1.0" ?><!DOCTYPE svg  PUBLIC '-//W3C//DTD SVG 1.1//EN'  'http://www.w3.org/Graphics/SVG/1.1/DTD/svg11.dtd'><svg height="100%" style="fill-rule:evenodd;clip-rule:evenodd;stroke-linejoin:round;stroke-miterlimit:2;" version="1.1" viewBox="0 0 24 24" width="100%" xml:space="preserve" xmlns="http://www.w3.org/2000/svg" xmlns:serif="http://www.serif.com/" xmlns:xlink="http://www.w3.org/1999/xlink"><g id="Icon"><path d="M16.206,17.266c-1.477,1.238 -3.38,1.984 -5.456,1.984c-4.691,0 -8.5,-3.809 -8.5,-8.5c0,-4.691 3.809,-8.5 8.5,-8.5c4.691,0 8.5,3.809 8.5,8.5c0,2.076 -0.746,3.979 -1.984,5.456l3.264,3.264c0.293,0.292 0.293,0.768 0,1.06c-0.292,0.293 -0.768,0.293 -1.06,0l-3.264,-3.264Zm-5.456,-13.516c3.863,0 7,3.137 7,7c0,3.863 -3.137,7 -7,7c-3.863,0 -7,-3.137 -7,-7c0,-3.863 3.137,-7 7,-7Z"/></g></svg>